<?xml version="1.0" encoding="UTF-8"?>
<svg id="Layer_2" data-name="Layer 2" xmlns="http://www.w3.org/2000/svg" viewBox="0 0 408.3 292.19">
  <defs>
    <style>
      .cls-1 {
        fill: #0682c6;
      }

      .cls-1, .cls-2, .cls-3, .cls-4 {
        stroke-width: 0px;
      }

      .cls-2 {
        fill: #090;
      }

      .cls-3 {
        fill: #00e1ff;
      }

      .cls-4 {
        fill: #06c;
      }
    </style>
  </defs>
  <g id="Layer_2_copy" data-name="Layer 2 copy">
    <g>
      <path class="cls-4" d="m4.95,178.58l-4.95-10.17s24.6-22.03,45.11-38.03c19.47-14.25,62.93-45.89,62.93-45.89,0,0,30.6-26.08,44.16-41.03,13.56-14.95,25.03-30.25,25.03-30.25l30.94,34.07L245.72,0l56.67,60.84s-46.94,2.78-69.19,35.46-9.39,57.71-9.39,57.71c0,0-66.41-8.69-111.95-3.82-45.55,4.87-84.49,18.17-106.91,28.38Z"/>
      <path class="cls-1" d="m18.69,206.52s51.8,89.7,202,85.53c146.03-9.74,180.45-101.52,183.92-111.26,0,0,9.74-27.47-2.43-54.24-12.17-26.77-40.33-45.55-70.58-47.98-41.03-4.17-64.67,17.04-64.67,17.04,0,0-23.29,18.77-20.17,39.98,3.13,21.21,19.47,15.99,19.47,15.99,0,0-11.13-19.47,9.74-35.12,17.38-8,31.99,8.69,31.29,19.12,0,0,.35,25.73-30.6,37.9-28.51,9.74-54.24,6.26-77.19,3.13,0,0-43.46-8-77.19-5.22s-67.45,11.47-103.61,35.12Z"/>
      <path class="cls-2" d="m4.95,178.58l-4.95-10.17s24.6-22.03,45.11-38.03c19.47-14.25,62.93-45.89,62.93-45.89,0,0,30.6-26.08,44.16-41.03,13.56-14.95,25.03-30.25,25.03-30.25l30.94,34.07L245.72,0l56.67,60.84s-46.94,2.78-69.19,35.46-9.39,57.71-9.39,57.71c0,0-66.41-8.69-111.95-3.82-45.55,4.87-84.49,18.17-106.91,28.38Z"/>
      <path class="cls-3" d="m342.31,109.17c-9.39-3.82-21.21-10.43-47.98-3.48-16.34,5.56-20.17,10.78-20.17,10.78,17.38-8,31.99,8.69,31.29,19.12,0,0,.35,25.73-30.6,37.9-28.51,9.74-54.24,6.26-77.19,3.13,0,0-43.46-8-77.19-5.22-33.73,2.78-67.45,11.47-103.61,35.12,0,0,10.8,18.7,36.83,38.62,0,0,30.62-31.32,100.5-5.94,69.88,25.38,118.91,20.23,144.29,5.94,25.38-14.29,56.67-29.93,69.88-70.61,13.21-40.68-16.69-61.54-26.08-65.36Zm-3.13,83.1c-19.12,25.73-65.02,42.42-102.57,41.72-37.55-.7-82.75-21.56-123.43-25.03-40.68-3.48-68.49,20.17-68.49,20.17l-6.26-5.22s20.86-22.25,38.59-28.86,25.73-7.65,53.2-7.3c27.47.35,65.02,18.43,108.13,20.86,43.11,2.43,70.23-20.86,70.23-20.86,31.64-23.79,29.21-59.45,29.21-59.45,8.69.35,13.91,13.91,13.91,13.91,0,0,6.61,24.34-12.52,50.07Z"/>
    </g>
  </g>
</svg>