<svg width="75" height="52" viewBox="0 0 75 52" fill="none" xmlns="http://www.w3.org/2000/svg">
<ellipse cx="37.5" cy="26" rx="37.5" ry="26" fill="white"/>
<path d="M7.72741 30.2806L7 28.784C7 28.784 10.615 25.5419 13.6289 23.1873C16.4901 21.0902 22.8766 16.4339 22.8766 16.4339C22.8766 16.4339 27.3733 12.5959 29.3659 10.3958C31.3586 8.19566 33.0441 5.94404 33.0441 5.94404L37.5907 10.9579L43.1087 4L51.4364 12.9535C51.4364 12.9535 44.5386 13.3626 41.2689 18.1719C37.9993 22.9813 39.8891 26.6648 39.8891 26.6648C39.8891 26.6648 30.1301 25.3859 23.4379 26.1026C16.7443 26.8193 11.022 28.7766 7.72741 30.2792V30.2806Z" fill="#0066CC"/>
<path d="M9.74653 34.3923C9.74653 34.3923 17.3586 47.593 39.4306 46.9793C60.8898 45.5459 65.9479 32.0391 66.4578 30.6058C66.4578 30.6058 67.8891 26.5631 66.1007 22.6236C64.3123 18.684 60.1742 15.9202 55.7289 15.5626C49.6995 14.9489 46.2256 18.0703 46.2256 18.0703C46.2256 18.0703 42.8031 20.8326 43.2616 23.9539C43.7216 27.0753 46.1227 26.3071 46.1227 26.3071C46.1227 26.3071 44.4872 23.4418 47.554 21.1387C50.108 19.9613 52.255 22.4175 52.1521 23.9524C52.1521 23.9524 52.2035 27.739 47.6554 29.53C43.4659 30.9634 39.6848 30.4512 36.3123 29.9906C36.3123 29.9906 29.9258 28.8133 24.9692 29.2224C20.0125 29.6315 15.0573 30.9104 9.74359 34.3908L9.74653 34.3923Z" fill="#0682C6"/>
<path d="M7.72741 30.2806L7 28.784C7 28.784 10.615 25.5419 13.6289 23.1873C16.4901 21.0902 22.8766 16.4339 22.8766 16.4339C22.8766 16.4339 27.3733 12.5959 29.3659 10.3958C31.3586 8.19566 33.0441 5.94404 33.0441 5.94404L37.5907 10.9579L43.1087 4L51.4364 12.9535C51.4364 12.9535 44.5386 13.3626 41.2689 18.1719C37.9993 22.9813 39.8891 26.6648 39.8891 26.6648C39.8891 26.6648 30.1301 25.3859 23.4379 26.1026C16.7443 26.8193 11.022 28.7766 7.72741 30.2792V30.2806Z" fill="#009900"/>
<path d="M57.3027 20.0661C55.9229 19.5039 54.1859 18.5311 50.252 19.5539C47.8509 20.3722 47.288 21.1404 47.288 21.1404C49.842 19.963 51.989 22.4192 51.8861 23.9542C51.8861 23.9542 51.9376 27.7407 47.3894 29.5317C43.1999 30.9651 39.4188 30.4529 36.0463 29.9923C36.0463 29.9923 29.6598 28.815 24.7032 29.2241C19.7465 29.6332 14.7913 30.9121 9.4776 34.3925C9.4776 34.3925 11.0647 37.1445 14.8898 40.076C14.8898 40.076 19.3894 35.4668 29.6584 39.2019C39.9273 42.9369 47.1323 42.179 50.8619 40.076C54.5915 37.973 59.1896 35.6714 61.1308 29.6847C63.072 23.6981 58.6782 20.6282 57.2983 20.0661H57.3027ZM56.8428 32.2954C54.0331 36.082 47.288 38.5382 41.77 38.4351C36.252 38.3321 29.6099 35.2623 23.6319 34.7516C17.6539 34.2395 13.5672 37.7199 13.5672 37.7199L12.6473 36.9517C12.6473 36.9517 15.7127 33.6773 18.3182 32.7046C20.9236 31.7318 22.0992 31.5787 26.1359 31.6303C30.1727 31.6818 35.6907 34.3425 42.0257 34.7001C48.3608 35.0577 52.3461 31.6303 52.3461 31.6303C56.9956 28.1292 56.6385 22.8813 56.6385 22.8813C57.9155 22.9328 58.6826 24.9284 58.6826 24.9284C58.6826 24.9284 59.6539 28.5104 56.8428 32.2969V32.2954Z" fill="#00E1FF"/>
</svg>
