<?xml version="1.0" encoding="utf-8"?>
<!-- Generator: Adobe Illustrator 25.2.3, SVG Export Plug-In . SVG Version: 6.00 Build 0)  -->
<svg version="1.1" id="Layer_1" xmlns="http://www.w3.org/2000/svg" xmlns:xlink="http://www.w3.org/1999/xlink" x="0px" y="0px"
	 viewBox="0 0 24 24" style="enable-background:new 0 0 24 24;" xml:space="preserve">
<style type="text/css">
	.st0{fill:#635BFF;}
</style>
<path class="st0" d="M17.2,10.5v6h-3.5v-5.6c0-1.4-0.5-2.4-1.8-2.4c-1,0-1.5,0.6-1.8,1.3C10,10,10,10.3,10,10.6v5.8H6.6
	c0,0,0-9.5,0-10.5h3.5v1.5l0,0l0,0l0,0c0.5-0.7,1.3-1.7,3.1-1.7C15.5,5.8,17.2,7.3,17.2,10.5z M3,1C1.8,1,1,1.8,1,2.8
	s0.8,1.8,1.9,1.8l0,0c1.2,0,2-0.8,2-1.8S4.2,1,3,1L3,1z M1.2,16.5h3.5V6.1H1.2V16.5z"/>
</svg>
