<?xml version="1.0" encoding="utf-8"?>
<!-- Generator: Adobe Illustrator 25.2.1, SVG Export Plug-In . SVG Version: 6.00 Build 0)  -->
<svg version="1.1" id="Layer_1" xmlns="http://www.w3.org/2000/svg" xmlns:xlink="http://www.w3.org/1999/xlink" x="0px" y="0px"
	 viewBox="0 0 24 24" style="enable-background:new 0 0 24 24;" xml:space="preserve">
<style type="text/css">
	.st0{fill:#1E90FF;}
</style>
<g>
	<path class="st0" d="M14.5,4H6H3.7C3.2,4,2.7,4.4,2.7,4.9v1c0,0.2,0.1,0.4,0.2,0.5C3.1,6.6,3.5,7,4.2,7.6c1.4,1,5,3.9,6,3.9
		c0.9,0,4.6-2.9,6-3.9c0.7-0.6,1.1-0.9,1.3-1.2c0-0.1,0.1-0.3,0.1-0.5v-1c0-0.5-0.4-0.9-0.9-0.9C16.8,4,14.5,4,14.5,4z"/>
	<path class="st0" d="M10.2,12.6c0,0-0.9-0.1-1.7-0.6c-0.8-0.5-5.8-4.1-5.8-4.1v7.1c0,0,0.1,0.8,0.9,0.8h13c0.9,0,0.9-0.8,0.9-0.8
		V7.8c0,0-5,3.6-5.8,4.1C11.2,12.5,10.2,12.6,10.2,12.6z"/>
</g>
</svg>
