<?xml version="1.0" encoding="utf-8"?>
<!-- Generator: Adobe Illustrator 23.0.4, SVG Export Plug-In . SVG Version: 6.00 Build 0)  -->
<svg version="1.1" id="Layer_1" xmlns="http://www.w3.org/2000/svg" xmlns:xlink="http://www.w3.org/1999/xlink" x="0px" y="0px"
	 viewBox="0 0 24 24" style="enable-background:new 0 0 24 24;" xml:space="preserve">
<title>ProtonMail icon</title>
<g>
	<path d="M18.8,2.8H5.2H1.5C0.7,2.8,0,3.5,0,4.3v1.6c0,0.3,0.1,0.6,0.3,0.8c0.3,0.4,0.9,1,2.1,1.9c2.3,1.6,8.1,6.2,9.7,6.2
		c1.5,0,7.4-4.6,9.7-6.2c1.2-0.9,1.8-1.5,2.1-1.9C23.9,6.5,24,6.2,24,5.9V4.3c0-0.8-0.7-1.5-1.5-1.5H18.8z"/>
	<path d="M12,16.6c0,0-1.5-0.2-2.7-1C8,14.8,0,9,0,9v11.4c0,0,0.1,1.3,1.5,1.3h20.9c1.5,0,1.5-1.3,1.5-1.3V9c0,0-8,5.8-9.3,6.6
		C13.5,16.5,12,16.6,12,16.6z"/>
</g>
</svg>
